<svg xmlns="http://www.w3.org/2000/svg" xmlns:xlink="http://www.w3.org/1999/xlink" width="277" zoomAndPan="magnify" viewBox="0 0 207.75 219.749993" height="293" preserveAspectRatio="xMidYMid meet" version="1.0"><defs><g/><clipPath id="bf87da5904"><path d="M 47.148438 12.964844 L 160.261719 12.964844 L 160.261719 138 L 47.148438 138 Z M 47.148438 12.964844 " clip-rule="nonzero"/></clipPath><clipPath id="7757851f92"><path d="M 47.148438 58 L 116 58 L 116 163.53125 L 47.148438 163.53125 Z M 47.148438 58 " clip-rule="nonzero"/></clipPath></defs><g clip-path="url(#bf87da5904)"><path fill="#ac3931" d="M 113.726562 124.996094 C 140.066406 120.253906 160.214844 97.078125 160.214844 69.425781 C 160.214844 38.375 134.808594 12.972656 103.757812 12.972656 L 24.71875 12.972656 L 47.300781 35.554688 L 103.757812 35.554688 C 122.390625 35.554688 137.628906 50.796875 137.628906 69.425781 C 137.628906 88.058594 122.390625 103.300781 103.757812 103.300781 L 92.46875 103.300781 L 92.46875 137.777344 L 115.050781 124.738281 C 114.609375 124.832031 114.167969 124.914062 113.726562 124.996094 Z M 113.726562 124.996094 " fill-opacity="1" fill-rule="evenodd"/></g><g clip-path="url(#7757851f92)"><path fill="#7fd1b9" d="M 69.886719 125.882812 C 69.886719 110.828125 69.886719 95.773438 69.886719 80.71875 L 103.757812 80.71875 C 109.96875 80.71875 115.050781 75.636719 115.050781 69.425781 C 115.050781 63.214844 109.96875 58.136719 103.757812 58.136719 L 47.300781 58.136719 C 47.300781 80.71875 47.300781 103.300781 47.300781 125.882812 L 47.300781 163.855469 L 69.886719 150.816406 Z M 69.886719 125.882812 " fill-opacity="1" fill-rule="evenodd"/></g><g fill="#ac3931" fill-opacity="1"><g transform="translate(19.195329, 197.012111)"><g><path d="M 1.265625 -20.25 L 10.625 -20.25 C 13.71875 -20.25 15.265625 -18.941406 15.265625 -16.328125 L 15.265625 -10.53125 C 15.265625 -7.925781 13.71875 -6.625 10.625 -6.625 L 6.78125 -6.625 L 6.78125 0 L 1.265625 0 Z M 9.75 -11.25 L 9.75 -15.609375 C 9.75 -16.066406 9.484375 -16.296875 8.953125 -16.296875 L 6.78125 -16.296875 L 6.78125 -10.5625 L 8.953125 -10.5625 C 9.484375 -10.5625 9.75 -10.789062 9.75 -11.25 Z M 9.75 -11.25 "/></g></g></g><g fill="#ac3931" fill-opacity="1"><g transform="translate(39.501776, 197.012111)"><g><path d="M 1.265625 -20.25 L 6.78125 -20.25 L 6.78125 0 L 1.265625 0 Z M 1.265625 -20.25 "/></g></g></g><g fill="#ac3931" fill-opacity="1"><g transform="translate(51.957626, 197.012111)"><g><path d="M 14.8125 -12.671875 L 9.296875 -12.671875 L 9.296875 -15.921875 C 9.296875 -16.378906 9.035156 -16.609375 8.515625 -16.609375 L 7.40625 -16.609375 C 6.882812 -16.609375 6.625 -16.378906 6.625 -15.921875 L 6.625 -4.3125 C 6.625 -3.851562 6.882812 -3.625 7.40625 -3.625 L 8.515625 -3.625 C 9.035156 -3.625 9.296875 -3.851562 9.296875 -4.3125 L 9.296875 -7.4375 L 14.8125 -7.4375 L 14.8125 -3.90625 C 14.8125 -1.300781 13.269531 0 10.1875 0 L 5.734375 0 C 2.648438 0 1.109375 -1.300781 1.109375 -3.90625 L 1.109375 -16.328125 C 1.109375 -18.941406 2.648438 -20.25 5.734375 -20.25 L 10.1875 -20.25 C 13.269531 -20.25 14.8125 -18.941406 14.8125 -16.328125 Z M 14.8125 -12.671875 "/></g></g></g><g fill="#ac3931" fill-opacity="1"><g transform="translate(71.980321, 197.012111)"><g><path d="M 11.578125 0 L 10.9375 -3.03125 L 6.078125 -3.03125 L 5.421875 0 L 0 0 L 5.203125 -20.25 L 11.921875 -20.25 L 17.125 0 Z M 6.9375 -6.9375 L 10.09375 -6.9375 L 8.546875 -14.21875 Z M 6.9375 -6.9375 "/></g></g></g><g fill="#ac3931" fill-opacity="1"><g transform="translate(93.516372, 197.012111)"><g><path d="M 10.84375 -20.25 L 16.578125 -20.25 L 11.609375 0 L 5.203125 0 L 0.21875 -20.25 L 5.953125 -20.25 L 8.390625 -6.71875 Z M 10.84375 -20.25 "/></g></g></g><g fill="#ac3931" fill-opacity="1"><g transform="translate(114.737139, 197.012111)"><g><path d="M 6.78125 -3.9375 L 13.6875 -3.9375 L 13.6875 0 L 1.265625 0 L 1.265625 -20.25 L 13.40625 -20.25 L 13.40625 -16.296875 L 6.78125 -16.296875 L 6.78125 -12.171875 L 12.484375 -12.171875 L 12.484375 -8.234375 L 6.78125 -8.234375 Z M 6.78125 -3.9375 "/></g></g></g><g fill="#ac3931" fill-opacity="1"><g transform="translate(133.309514, 197.012111)"><g><path d="M 13.46875 -20.25 L 13.46875 -16.296875 L 9.546875 -16.296875 L 9.546875 0 L 4.03125 0 L 4.03125 -16.296875 L 0.15625 -16.296875 L 0.15625 -20.25 Z M 13.46875 -20.25 "/></g></g></g><g fill="#ac3931" fill-opacity="1"><g transform="translate(151.34591, 197.012111)"><g/></g></g><g fill="#ac3931" fill-opacity="1"><g transform="translate(162.06769, 197.012111)"><g><path d="M 1.265625 -20.25 L 6.78125 -20.25 L 6.78125 0 L 1.265625 0 Z M 1.265625 -20.25 "/></g></g></g><g fill="#ac3931" fill-opacity="1"><g transform="translate(174.523538, 197.012111)"><g><path d="M 13.46875 -20.25 L 13.46875 -16.296875 L 9.546875 -16.296875 L 9.546875 0 L 4.03125 0 L 4.03125 -16.296875 L 0.15625 -16.296875 L 0.15625 -20.25 Z M 13.46875 -20.25 "/></g></g></g></svg>