<svg xmlns="http://www.w3.org/2000/svg" xmlns:xlink="http://www.w3.org/1999/xlink" width="30" zoomAndPan="magnify" viewBox="0 0 22.5 30.000001" height="40" preserveAspectRatio="xMidYMid meet" version="1.0"><defs><clipPath id="6ebe21f715"><path d="M 0.121094 0 L 21.894531 0 L 21.894531 24 L 0.121094 24 Z M 0.121094 0 " clip-rule="nonzero"/></clipPath><clipPath id="ffdb91f527"><path d="M 0.121094 8 L 14 8 L 14 29 L 0.121094 29 Z M 0.121094 8 " clip-rule="nonzero"/></clipPath><clipPath id="3abb028228"><path d="M 3.707031 0 L 7.335938 0 L 7.335938 3.628906 L 3.707031 3.628906 Z M 3.707031 0 " clip-rule="nonzero"/></clipPath></defs><g clip-path="url(#6ebe21f715)"><path fill="#ac3931" d="M 12.851562 21.421875 C 17.890625 20.515625 21.742188 16.082031 21.742188 10.792969 C 21.742188 4.859375 16.886719 0 10.949219 0 L -4.164062 0 L 0.152344 4.316406 L 10.949219 4.316406 C 14.511719 4.316406 17.425781 7.234375 17.425781 10.796875 C 17.425781 14.359375 14.511719 17.273438 10.949219 17.273438 L 8.789062 17.273438 L 8.789062 23.863281 L 13.105469 21.371094 C 13.023438 21.390625 12.9375 21.40625 12.851562 21.421875 Z M 12.851562 21.421875 " fill-opacity="1" fill-rule="evenodd"/></g><g clip-path="url(#ffdb91f527)"><path fill="#7fd1b9" d="M 4.46875 21.589844 C 4.46875 18.710938 4.46875 15.832031 4.46875 12.953125 L 10.949219 12.953125 C 12.136719 12.953125 13.105469 11.984375 13.105469 10.796875 C 13.105469 9.609375 12.136719 8.636719 10.949219 8.636719 L 0.152344 8.636719 C 0.152344 12.953125 0.152344 17.273438 0.152344 21.589844 L 0.152344 28.851562 L 4.46875 26.359375 Z M 4.46875 21.589844 " fill-opacity="1" fill-rule="evenodd"/></g><g clip-path="url(#3abb028228)"><path fill="#ac3931" d="M 3.707031 0 L 7.335938 0 L 7.335938 3.628906 L 3.707031 3.628906 Z M 3.707031 0 " fill-opacity="1" fill-rule="nonzero"/></g></svg>